<svg width="17" height="18" viewBox="0 0 17 18" fill="none" xmlns="http://www.w3.org/2000/svg">
<path d="M12.7499 12.331C12.1517 12.331 11.6166 12.5736 11.2073 12.9536L5.59572 9.59829C5.63508 9.41233 5.66656 9.22638 5.66656 9.03234C5.66656 8.8383 5.63508 8.65235 5.59572 8.46639L11.1443 5.14347C11.5693 5.54772 12.1281 5.79835 12.7499 5.79835C14.0564 5.79835 15.111 4.71497 15.111 3.37286C15.111 2.03075 14.0564 0.947369 12.7499 0.947369C11.4434 0.947369 10.3888 2.03075 10.3888 3.37286C10.3888 3.5669 10.4203 3.75285 10.4596 3.93881L4.911 7.26173C4.486 6.85748 3.92721 6.60685 3.30545 6.60685C1.99897 6.60685 0.944336 7.69023 0.944336 9.03234C0.944336 10.3744 1.99897 11.4578 3.30545 11.4578C3.92721 11.4578 4.486 11.2072 4.911 10.8029L10.5147 14.1663C10.4754 14.3361 10.4517 14.514 10.4517 14.6918C10.4517 15.9935 11.4828 17.0526 12.7499 17.0526C14.017 17.0526 15.048 15.9935 15.048 14.6918C15.048 13.3901 14.017 12.331 12.7499 12.331ZM12.7499 2.56436C13.1828 2.56436 13.5369 2.92819 13.5369 3.37286C13.5369 3.81753 13.1828 4.18136 12.7499 4.18136C12.317 4.18136 11.9629 3.81753 11.9629 3.37286C11.9629 2.92819 12.317 2.56436 12.7499 2.56436ZM3.30545 9.84084C2.87258 9.84084 2.51841 9.47701 2.51841 9.03234C2.51841 8.58767 2.87258 8.22384 3.30545 8.22384C3.73832 8.22384 4.09248 8.58767 4.09248 9.03234C4.09248 9.47701 3.73832 9.84084 3.30545 9.84084ZM12.7499 15.5165C12.317 15.5165 11.9629 15.1527 11.9629 14.708C11.9629 14.2633 12.317 13.8995 12.7499 13.8995C13.1828 13.8995 13.5369 14.2633 13.5369 14.708C13.5369 15.1527 13.1828 15.5165 12.7499 15.5165Z" fill="black"/>
</svg>
