<svg width="18" height="18" viewBox="0 0 18 18" fill="none" xmlns="http://www.w3.org/2000/svg">
<path d="M6.1652 13.3425L9.0002 11.6325L11.8352 13.365L11.0927 10.125L13.5902 7.965L10.3052 7.6725L9.0002 4.6125L7.6952 7.65L4.4102 7.9425L6.9077 10.125L6.1652 13.3425ZM9.0002 13.7475L5.2652 15.9975C5.1002 16.1025 4.9277 16.1475 4.7477 16.1325C4.5677 16.1175 4.4102 16.0575 4.2752 15.9525C4.1402 15.8475 4.0352 15.7164 3.9602 15.5592C3.8852 15.402 3.8702 15.2256 3.9152 15.03L4.9052 10.7775L1.5977 7.92C1.4477 7.785 1.3541 7.6311 1.3169 7.4583C1.2797 7.2855 1.2908 7.1169 1.3502 6.9525C1.4096 6.7881 1.4996 6.6531 1.6202 6.5475C1.7408 6.4419 1.9058 6.3744 2.1152 6.345L6.4802 5.9625L8.1677 1.9575C8.2427 1.7775 8.3591 1.6425 8.5169 1.5525C8.6747 1.4625 8.8358 1.4175 9.0002 1.4175C9.1646 1.4175 9.3257 1.4625 9.4835 1.5525C9.6413 1.6425 9.7577 1.7775 9.8327 1.9575L11.5202 5.9625L15.8852 6.345C16.0952 6.375 16.2602 6.4425 16.3802 6.5475C16.5002 6.6525 16.5902 6.7875 16.6502 6.9525C16.7102 7.1175 16.7216 7.2864 16.6844 7.4592C16.6472 7.632 16.5533 7.7856 16.4027 7.92L13.0952 10.7775L14.0852 15.03C14.1302 15.225 14.1152 15.4014 14.0402 15.5592C13.9652 15.717 13.8602 15.8481 13.7252 15.9525C13.5902 16.0569 13.4327 16.1169 13.2527 16.1325C13.0727 16.1481 12.9002 16.1031 12.7352 15.9975L9.0002 13.7475Z" fill="black"/>
</svg>
