<svg width="18" height="18" viewBox="0 0 18 18" fill="none" xmlns="http://www.w3.org/2000/svg">
<path d="M8.80166 11.0348C9.50834 10.4408 10.0152 9.64388 10.2536 8.75202C10.492 7.86016 10.4503 6.91657 10.1342 6.04921C9.81805 5.18186 9.24283 4.43271 8.4865 3.90337C7.73018 3.37402 6.82935 3.0901 5.90619 3.0901C4.98303 3.0901 4.0822 3.37402 3.32588 3.90337C2.56956 4.43271 1.99434 5.18186 1.67823 6.04921C1.36212 6.91657 1.32042 7.86016 1.55879 8.75202C1.79715 9.64388 2.30404 10.4408 3.01072 11.0348C1.90722 11.5338 0.95093 12.3087 0.234082 13.2848C0.101681 13.4653 0.0463747 13.6909 0.080329 13.9121C0.114283 14.1333 0.234717 14.3319 0.415137 14.4643C0.595557 14.5967 0.821183 14.652 1.04238 14.6181C1.26358 14.5841 1.46223 14.4637 1.59463 14.2833C2.09085 13.6056 2.73985 13.0544 3.48897 12.6744C4.23809 12.2945 5.06623 12.0964 5.90619 12.0964C6.74616 12.0964 7.5743 12.2945 8.32341 12.6744C9.07253 13.0544 9.72153 13.6056 10.2178 14.2833C10.3502 14.4638 10.5488 14.5843 10.7701 14.6183C10.9914 14.6524 11.2171 14.5971 11.3976 14.4647C11.5781 14.3323 11.6986 14.1336 11.7327 13.9123C11.7667 13.6911 11.7114 13.4654 11.579 13.2848C10.8617 12.3089 9.90525 11.534 8.80166 11.0348ZM3.09369 7.59375C3.09369 7.03749 3.25864 6.49372 3.56768 6.03121C3.87672 5.56869 4.31598 5.20821 4.8299 4.99534C5.34381 4.78247 5.90931 4.72677 6.45488 4.83529C7.00046 4.94381 7.50159 5.21168 7.89493 5.60501C8.28827 5.99835 8.55613 6.49949 8.66465 7.04506C8.77317 7.59063 8.71748 8.15613 8.5046 8.67005C8.29173 9.18396 7.93125 9.62322 7.46873 9.93226C7.00622 10.2413 6.46245 10.4062 5.90619 10.4062C5.16027 10.4062 4.4449 10.1099 3.91745 9.58249C3.39001 9.05504 3.09369 8.33967 3.09369 7.59375ZM17.5851 14.4612C17.4958 14.5268 17.3944 14.5742 17.2867 14.6006C17.1791 14.6271 17.0673 14.6321 16.9577 14.6153C16.8482 14.5985 16.743 14.5603 16.6482 14.5028C16.5534 14.4454 16.4708 14.3698 16.4053 14.2805C15.9078 13.604 15.2585 13.0538 14.5097 12.674C13.7609 12.2942 12.9333 12.0955 12.0937 12.0937C11.8699 12.0937 11.6553 12.0049 11.4971 11.8466C11.3388 11.6884 11.2499 11.4738 11.2499 11.25C11.2499 11.0262 11.3388 10.8116 11.4971 10.6534C11.6553 10.4951 11.8699 10.4062 12.0937 10.4062C12.4934 10.4055 12.8885 10.3196 13.2524 10.1542C13.6163 9.98881 13.9408 9.74772 14.2042 9.44703C14.4676 9.14634 14.6639 8.79295 14.78 8.41042C14.8961 8.02789 14.9293 7.62501 14.8774 7.22864C14.8255 6.83227 14.6897 6.45151 14.479 6.11176C14.2684 5.77201 13.9878 5.48106 13.6558 5.25832C13.3239 5.03557 12.9482 4.88615 12.554 4.82001C12.1598 4.75388 11.7559 4.77254 11.3695 4.87477C11.2615 4.90599 11.1484 4.91535 11.0368 4.90228C10.9252 4.88921 10.8174 4.85398 10.7196 4.79866C10.6218 4.74334 10.536 4.66904 10.4673 4.58012C10.3986 4.49121 10.3484 4.38947 10.3195 4.28087C10.2907 4.17227 10.2838 4.059 10.2993 3.94772C10.3148 3.83643 10.3524 3.72936 10.4099 3.6328C10.4673 3.53624 10.5435 3.45213 10.6339 3.3854C10.7243 3.31867 10.8271 3.27067 10.9363 3.24422C11.9246 2.98237 12.9725 3.06482 13.9076 3.47799C14.8427 3.89115 15.6092 4.61041 16.081 5.51734C16.5529 6.42428 16.7018 7.46483 16.5033 8.4677C16.3049 9.47056 15.7708 10.376 14.9892 11.0348C16.0927 11.5338 17.049 12.3087 17.7658 13.2848C17.8973 13.465 17.952 13.6899 17.9182 13.9103C17.8843 14.1307 17.7646 14.3288 17.5851 14.4612Z" fill="black"/>
</svg>
